<?xml version="1.0" encoding="utf-8"?>
<!-- Generator: Adobe Illustrator 16.0.0, SVG Export Plug-In . SVG Version: 6.00 Build 0)  -->
<!DOCTYPE svg PUBLIC "-//W3C//DTD SVG 1.1//EN" "http://www.w3.org/Graphics/SVG/1.1/DTD/svg11.dtd">
<svg version="1.1" id="Layer_1" xmlns="http://www.w3.org/2000/svg" xmlns:xlink="http://www.w3.org/1999/xlink" x="0px" y="0px"
	 width="500px" height="427.963px" viewBox="0 0 500 427.963" enable-background="new 0 0 500 427.963" xml:space="preserve">
<path opacity="0.75" fill="#FF3E3E" enable-background="new    " d="M500,135.902C500,60.89,439.764,0,365.452,0
	C316.5,0,273.542,26.473,250,65.925C226.458,26.473,183.75,0,134.793,0C60.477,0.004,0,60.885,0,135.902
	c0,39.03,16.588,74.2,42.708,98.973h-0.037L235.3,420.944c3.535,4.288,8.765,7.019,14.7,7.019c5.504,0,10.527-2.354,14.029-6.116
	l193.563-186.971h-0.061C483.671,210.102,500,174.941,500,135.902"/>
</svg>
